<svg xmlns="http://www.w3.org/2000/svg" width="60" height="30" viewBox="0 0 60 30" fill="none"><path d="M19.9125 15L28.385 27.765C29.3125 29.16 30.875 30 32.55 30H39.91L29.955 15H19.9125Z" fill="#FF0B0B"></path><path d="M51.4375 2.235C50.51 0.840001 48.9475 0 47.2725 0H39.9125L49.8675 15L39.9125 30H49.955L59.91 15L51.4375 2.235Z" fill="#FF0B0B"></path><path d="M31.525 2.235C30.5975 0.840001 29.035 0 27.36 0H20L29.955 15H39.9975L31.525 2.235Z" fill="#FF0B0B"></path><path d="M0 15L8.4725 27.765C9.4 29.16 10.9625 30 12.6375 30H19.9975L10.0425 15L19.9975 0H9.955L0 15Z" fill="#FF0B0B"></path></svg>